<svg width="20" height="20" viewBox="0 0 20 20" fill="none" xmlns="http://www.w3.org/2000/svg">
<path d="M0 5C0 2.23858 2.23858 0 5 0H15C17.7614 0 20 2.23858 20 5V15C20 17.7614 17.7614 20 15 20H5C2.23858 20 0 17.7614 0 15V5Z" fill="#1EABEB"/>
<path fill-rule="evenodd" clip-rule="evenodd" d="M15.6832 6.67011C16.0879 7.04592 16.1113 7.67865 15.7355 8.08336L9.91596 14.3506C9.68492 14.5994 9.3626 14.7435 9.02311 14.7498C8.68362 14.7561 8.35618 14.624 8.11609 14.3839L5.3232 11.591C4.93267 11.2005 4.93267 10.5673 5.3232 10.1768L5.67675 9.82322C6.06727 9.4327 6.70044 9.4327 7.09096 9.82322L8.96663 11.6989L13.9035 6.38223C14.2793 5.97752 14.9121 5.95409 15.3168 6.32989L15.6832 6.67011Z" fill="white"/>
</svg>
