<svg width="164" height="13" viewBox="0 0 164 13" fill="none" xmlns="http://www.w3.org/2000/svg">
<path d="M5.512 5.16H4.016L3.648 7.216H5.144L5.512 5.16ZM9.128 3.592L8.96 4.504C8.91733 4.728 8.824 4.89333 8.68 5C8.536 5.10667 8.30667 5.16 7.992 5.16H7.328L6.96 7.216H7.968C8.192 7.216 8.34933 7.28267 8.44 7.416C8.536 7.54933 8.56 7.776 8.512 8.096L8.4 8.784H6.736L6.144 12H5.128C5.02667 12 4.93067 11.976 4.84 11.928C4.75467 11.88 4.68 11.816 4.616 11.736C4.55733 11.6507 4.51467 11.5547 4.488 11.448C4.46667 11.3413 4.46933 11.2267 4.496 11.104L4.92 8.784H3.432L3 11.216C2.94667 11.4987 2.82667 11.7013 2.64 11.824C2.45333 11.9413 2.24267 12 2.008 12H1.032L1.616 8.784H0.792C0.568 8.784 0.408 8.72 0.312 8.592C0.221333 8.45867 0.2 8.232 0.248 7.912L0.36 7.216H1.84L2.208 5.16H0.552L0.72 4.248C0.762667 4.024 0.856 3.85867 1 3.752C1.14933 3.64533 1.38133 3.592 1.696 3.592H2.424L2.888 1.12C2.93067 0.896 3.03733 0.719999 3.208 0.591999C3.384 0.458666 3.58667 0.391999 3.816 0.391999H4.824L4.232 3.592H5.728L6.32 0.391999H7.304C7.53333 0.391999 7.71467 0.463999 7.848 0.608C7.98667 0.746666 8.03733 0.922666 8 1.136L7.544 3.592H9.128Z" fill="#D0021B"/>
<path d="M12.8973 5.184H13.3693C13.7639 5.184 14.0493 5.06133 14.2253 4.816L17.1613 0.888C17.2999 0.701333 17.4519 0.573333 17.6173 0.504C17.7826 0.429333 17.9853 0.391999 18.2253 0.391999H20.3053L16.6093 5.152C16.3693 5.46133 16.1213 5.68267 15.8653 5.816C16.0519 5.89067 16.2199 5.98933 16.3693 6.112C16.5186 6.22933 16.6626 6.38667 16.8013 6.584L20.5933 12H18.4573C18.3186 12 18.1986 11.9893 18.0972 11.968C18.0013 11.9467 17.9159 11.9173 17.8413 11.88C17.7666 11.8427 17.7026 11.7973 17.6493 11.744C17.5959 11.6853 17.5453 11.6187 17.4973 11.544L14.5133 7.368C14.4119 7.224 14.2919 7.12267 14.1533 7.064C14.0146 7 13.8199 6.968 13.5693 6.968H12.8973V12H10.4973V0.391999H12.8973V5.184ZM23.4788 12.128C23.1054 12.128 22.7748 12.0747 22.4868 11.968C22.1988 11.856 21.9561 11.6987 21.7588 11.496C21.5614 11.2933 21.4121 11.048 21.3108 10.76C21.2094 10.472 21.1588 10.1467 21.1588 9.784V5.336H20.3828C20.2654 5.336 20.1641 5.29867 20.0788 5.224C19.9988 5.14933 19.9588 5.03733 19.9588 4.888V4.024L21.2788 3.784L21.7268 1.648C21.7854 1.408 21.9481 1.288 22.2148 1.288H23.3668V3.8H25.4948V5.336H23.3668V9.64C23.3668 9.86933 23.4201 10.0507 23.5268 10.184C23.6388 10.3173 23.7961 10.384 23.9988 10.384C24.1054 10.384 24.1961 10.3733 24.2708 10.352C24.3454 10.3253 24.4094 10.2987 24.4628 10.272C24.5161 10.24 24.5641 10.2133 24.6068 10.192C24.6548 10.1653 24.7028 10.152 24.7508 10.152C24.8148 10.152 24.8681 10.168 24.9108 10.2C24.9534 10.2267 24.9961 10.2747 25.0388 10.344L25.7028 11.4C25.3988 11.64 25.0548 11.8213 24.6708 11.944C24.2868 12.0667 23.8894 12.128 23.4788 12.128ZM30.3195 3.624C30.9382 3.624 31.5008 3.72267 32.0075 3.92C32.5142 4.11733 32.9488 4.4 33.3115 4.768C33.6742 5.13067 33.9542 5.57333 34.1515 6.096C34.3488 6.61867 34.4475 7.208 34.4475 7.864C34.4475 8.52 34.3488 9.112 34.1515 9.64C33.9542 10.1627 33.6742 10.608 33.3115 10.976C32.9488 11.344 32.5142 11.6267 32.0075 11.824C31.5008 12.0213 30.9382 12.12 30.3195 12.12C29.6955 12.12 29.1275 12.0213 28.6155 11.824C28.1088 11.6267 27.6742 11.344 27.3115 10.976C26.9488 10.608 26.6662 10.1627 26.4635 9.64C26.2662 9.112 26.1675 8.52 26.1675 7.864C26.1675 7.208 26.2662 6.61867 26.4635 6.096C26.6662 5.57333 26.9488 5.13067 27.3115 4.768C27.6742 4.4 28.1088 4.11733 28.6155 3.92C29.1275 3.72267 29.6955 3.624 30.3195 3.624ZM30.3195 10.464C30.9488 10.464 31.4155 10.248 31.7195 9.816C32.0235 9.37867 32.1755 8.73067 32.1755 7.872C32.1755 7.01867 32.0235 6.376 31.7195 5.944C31.4155 5.50667 30.9488 5.288 30.3195 5.288C29.6742 5.288 29.1995 5.50667 28.8955 5.944C28.5915 6.376 28.4395 7.01867 28.4395 7.872C28.4395 8.73067 28.5915 9.37867 28.8955 9.816C29.1995 10.248 29.6742 10.464 30.3195 10.464ZM39.8079 6.168C40.5599 6.168 41.1092 5.98667 41.4559 5.624C41.8079 5.26133 41.9839 4.76533 41.9839 4.136C41.9839 3.848 41.9385 3.58667 41.8479 3.352C41.7625 3.112 41.6292 2.90933 41.4479 2.744C41.2719 2.57333 41.0479 2.44267 40.7759 2.352C40.5039 2.26133 40.1812 2.216 39.8079 2.216H38.2879V6.168H39.8079ZM39.8079 0.391999C40.6025 0.391999 41.2879 0.485333 41.8639 0.672C42.4452 0.858666 42.9225 1.12 43.2959 1.456C43.6692 1.78667 43.9439 2.18133 44.1199 2.64C44.3012 3.09867 44.3919 3.59733 44.3919 4.136C44.3919 4.70667 44.2985 5.22933 44.1119 5.704C43.9252 6.17867 43.6425 6.58667 43.2639 6.928C42.8852 7.26933 42.4079 7.536 41.8319 7.728C41.2559 7.91467 40.5812 8.008 39.8079 8.008H38.2879V12H35.8879V0.391999H39.8079ZM48.9758 3.624C49.5944 3.624 50.1571 3.72267 50.6638 3.92C51.1704 4.11733 51.6051 4.4 51.9678 4.768C52.3304 5.13067 52.6104 5.57333 52.8078 6.096C53.0051 6.61867 53.1038 7.208 53.1038 7.864C53.1038 8.52 53.0051 9.112 52.8078 9.64C52.6104 10.1627 52.3304 10.608 51.9678 10.976C51.6051 11.344 51.1704 11.6267 50.6638 11.824C50.1571 12.0213 49.5944 12.12 48.9758 12.12C48.3518 12.12 47.7838 12.0213 47.2718 11.824C46.7651 11.6267 46.3304 11.344 45.9678 10.976C45.6051 10.608 45.3224 10.1627 45.1198 9.64C44.9224 9.112 44.8238 8.52 44.8238 7.864C44.8238 7.208 44.9224 6.61867 45.1198 6.096C45.3224 5.57333 45.6051 5.13067 45.9678 4.768C46.3304 4.4 46.7651 4.11733 47.2718 3.92C47.7838 3.72267 48.3518 3.624 48.9758 3.624ZM48.9758 10.464C49.6051 10.464 50.0718 10.248 50.3758 9.816C50.6798 9.37867 50.8318 8.73067 50.8318 7.872C50.8318 7.01867 50.6798 6.376 50.3758 5.944C50.0718 5.50667 49.6051 5.288 48.9758 5.288C48.3304 5.288 47.8558 5.50667 47.5518 5.944C47.2478 6.376 47.0958 7.01867 47.0958 7.872C47.0958 8.73067 47.2478 9.37867 47.5518 9.816C47.8558 10.248 48.3304 10.464 48.9758 10.464ZM54.4901 12V3.752H55.8501C56.1275 3.752 56.3115 3.88 56.4021 4.136L56.5301 4.672C56.6741 4.52267 56.8208 4.384 56.9701 4.256C57.1248 4.128 57.2901 4.01867 57.4661 3.928C57.6421 3.832 57.8315 3.75733 58.0341 3.704C58.2421 3.65067 58.4661 3.624 58.7061 3.624C59.2128 3.624 59.6315 3.76 59.9621 4.032C60.2928 4.29867 60.5435 4.656 60.7141 5.104C60.8475 4.84267 61.0101 4.61867 61.2021 4.432C61.3995 4.24 61.6128 4.08533 61.8421 3.968C62.0768 3.85067 62.3221 3.76533 62.5781 3.712C62.8395 3.65333 63.1008 3.624 63.3621 3.624C63.8261 3.624 64.2368 3.69333 64.5941 3.832C64.9515 3.97067 65.2501 4.176 65.4901 4.448C65.7355 4.71467 65.9221 5.04267 66.0501 5.432C66.1781 5.82133 66.2421 6.264 66.2421 6.76V12H64.0341V6.76C64.0341 5.79467 63.6208 5.312 62.7941 5.312C62.6075 5.312 62.4341 5.344 62.2741 5.408C62.1195 5.46667 61.9808 5.55733 61.8581 5.68C61.7408 5.80267 61.6475 5.95467 61.5781 6.136C61.5141 6.31733 61.4821 6.52533 61.4821 6.76V12H59.2741V6.76C59.2741 6.23733 59.1701 5.86667 58.9621 5.648C58.7595 5.424 58.4581 5.312 58.0581 5.312C57.8021 5.312 57.5595 5.37333 57.3301 5.496C57.1061 5.61333 56.8955 5.77867 56.6981 5.992V12H54.4901ZM71.7101 3.624C72.3288 3.624 72.8915 3.72267 73.3981 3.92C73.9048 4.11733 74.3395 4.4 74.7021 4.768C75.0648 5.13067 75.3448 5.57333 75.5421 6.096C75.7395 6.61867 75.8381 7.208 75.8381 7.864C75.8381 8.52 75.7395 9.112 75.5421 9.64C75.3448 10.1627 75.0648 10.608 74.7021 10.976C74.3395 11.344 73.9048 11.6267 73.3981 11.824C72.8915 12.0213 72.3288 12.12 71.7101 12.12C71.0861 12.12 70.5181 12.0213 70.0061 11.824C69.4995 11.6267 69.0648 11.344 68.7021 10.976C68.3395 10.608 68.0568 10.1627 67.8541 9.64C67.6568 9.112 67.5581 8.52 67.5581 7.864C67.5581 7.208 67.6568 6.61867 67.8541 6.096C68.0568 5.57333 68.3395 5.13067 68.7021 4.768C69.0648 4.4 69.4995 4.11733 70.0061 3.92C70.5181 3.72267 71.0861 3.624 71.7101 3.624ZM71.7101 10.464C72.3395 10.464 72.8061 10.248 73.1101 9.816C73.4141 9.37867 73.5661 8.73067 73.5661 7.872C73.5661 7.01867 73.4141 6.376 73.1101 5.944C72.8061 5.50667 72.3395 5.288 71.7101 5.288C71.0648 5.288 70.5901 5.50667 70.2861 5.944C69.9821 6.376 69.8301 7.01867 69.8301 7.872C69.8301 8.73067 69.9821 9.37867 70.2861 9.816C70.5901 10.248 71.0648 10.464 71.7101 10.464ZM83.1079 4.648C83.1079 4.80267 83.0812 4.95467 83.0279 5.104C82.9745 5.248 82.9052 5.36533 82.8199 5.456L79.1159 10.336H83.0039V12H76.5639V11.088C76.5639 10.9973 76.5879 10.8827 76.6359 10.744C76.6892 10.6053 76.7612 10.4747 76.8519 10.352L80.5879 5.416H76.7959V3.752H83.1079V4.648ZM89.5815 6.904C89.5815 6.67467 89.5495 6.456 89.4855 6.248C89.4268 6.04 89.3308 5.856 89.1975 5.696C89.0642 5.536 88.8962 5.41067 88.6935 5.32C88.4908 5.224 88.2482 5.176 87.9655 5.176C87.4375 5.176 87.0242 5.32533 86.7255 5.624C86.4268 5.92267 86.2322 6.34933 86.1415 6.904H89.5815ZM86.1095 8.216C86.1788 8.98933 86.3975 9.55467 86.7655 9.912C87.1388 10.2693 87.6242 10.448 88.2215 10.448C88.5255 10.448 88.7868 10.4133 89.0055 10.344C89.2295 10.2693 89.4242 10.1893 89.5895 10.104C89.7602 10.0133 89.9122 9.93333 90.0455 9.864C90.1842 9.78933 90.3202 9.752 90.4535 9.752C90.6242 9.752 90.7575 9.816 90.8535 9.944L91.4935 10.744C91.2588 11.016 91.0002 11.2427 90.7175 11.424C90.4348 11.6 90.1415 11.7413 89.8375 11.848C89.5335 11.9493 89.2268 12.0187 88.9175 12.056C88.6082 12.0987 88.3095 12.12 88.0215 12.12C87.4455 12.12 86.9068 12.0267 86.4055 11.84C85.9095 11.648 85.4748 11.368 85.1015 11C84.7335 10.6267 84.4428 10.1653 84.2295 9.616C84.0162 9.06667 83.9095 8.42933 83.9095 7.704C83.9095 7.144 84.0002 6.616 84.1815 6.12C84.3682 5.624 84.6348 5.192 84.9815 4.824C85.3282 4.456 85.7495 4.16533 86.2455 3.952C86.7415 3.73333 87.3015 3.624 87.9255 3.624C88.4535 3.624 88.9388 3.70933 89.3815 3.88C89.8295 4.04533 90.2135 4.288 90.5335 4.608C90.8588 4.928 91.1095 5.32267 91.2855 5.792C91.4668 6.256 91.5575 6.78667 91.5575 7.384C91.5575 7.54933 91.5495 7.68533 91.5335 7.792C91.5175 7.89867 91.4908 7.984 91.4535 8.048C91.4162 8.112 91.3655 8.15733 91.3015 8.184C91.2375 8.20533 91.1548 8.216 91.0535 8.216H86.1095ZM99.379 2.616C99.3043 2.73867 99.227 2.82933 99.147 2.888C99.0723 2.94133 98.9737 2.968 98.851 2.968C98.7337 2.968 98.6057 2.928 98.467 2.848C98.3337 2.76267 98.1763 2.672 97.995 2.576C97.8137 2.48 97.6057 2.392 97.371 2.312C97.1363 2.22667 96.8617 2.184 96.547 2.184C95.9923 2.184 95.5763 2.30933 95.299 2.56C95.0217 2.80533 94.883 3.128 94.883 3.528C94.883 3.784 94.9577 3.99733 95.107 4.168C95.2617 4.33333 95.4617 4.47733 95.707 4.6C95.9577 4.72267 96.2403 4.832 96.555 4.928C96.8697 5.024 97.1923 5.13067 97.523 5.248C97.8537 5.36 98.1763 5.49333 98.491 5.648C98.8057 5.80267 99.0857 5.99733 99.331 6.232C99.5817 6.46667 99.7817 6.75467 99.931 7.096C100.086 7.432 100.163 7.84267 100.163 8.328C100.163 8.856 100.07 9.352 99.883 9.816C99.7017 10.2747 99.4377 10.6773 99.091 11.024C98.7443 11.3653 98.315 11.6347 97.803 11.832C97.2963 12.0293 96.7203 12.128 96.075 12.128C95.707 12.128 95.339 12.0907 94.971 12.016C94.6083 11.9413 94.2563 11.8373 93.915 11.704C93.579 11.5707 93.2617 11.4107 92.963 11.224C92.6643 11.0373 92.403 10.8293 92.179 10.6L92.883 9.464C92.9417 9.37867 93.019 9.30933 93.115 9.256C93.211 9.19733 93.3123 9.168 93.419 9.168C93.563 9.168 93.715 9.22133 93.875 9.328C94.035 9.43467 94.219 9.552 94.427 9.68C94.635 9.808 94.875 9.92533 95.147 10.032C95.4243 10.1387 95.755 10.192 96.139 10.192C96.699 10.192 97.131 10.064 97.435 9.808C97.7443 9.552 97.899 9.17067 97.899 8.664C97.899 8.37067 97.8217 8.13333 97.667 7.952C97.5177 7.77067 97.3203 7.61867 97.075 7.496C96.8297 7.37333 96.5497 7.26933 96.235 7.184C95.9203 7.09333 95.5977 6.99467 95.267 6.888C94.9363 6.78133 94.6137 6.65333 94.299 6.504C93.9843 6.35467 93.7043 6.15733 93.459 5.912C93.2137 5.66667 93.0137 5.36267 92.859 5C92.7097 4.63733 92.635 4.18667 92.635 3.648C92.635 3.216 92.7203 2.79733 92.891 2.392C93.0617 1.98667 93.3123 1.62667 93.643 1.312C93.9737 0.997333 94.379 0.743999 94.859 0.551999C95.3443 0.359999 95.899 0.263999 96.523 0.263999C97.2217 0.263999 97.867 0.373332 98.459 0.591999C99.0563 0.805333 99.5603 1.104 99.971 1.488L99.379 2.616ZM103.714 0.0719995V12H101.506V0.0719995H103.714ZM109.273 3.624C109.891 3.624 110.454 3.72267 110.961 3.92C111.467 4.11733 111.902 4.4 112.265 4.768C112.627 5.13067 112.907 5.57333 113.105 6.096C113.302 6.61867 113.401 7.208 113.401 7.864C113.401 8.52 113.302 9.112 113.105 9.64C112.907 10.1627 112.627 10.608 112.265 10.976C111.902 11.344 111.467 11.6267 110.961 11.824C110.454 12.0213 109.891 12.12 109.273 12.12C108.649 12.12 108.081 12.0213 107.569 11.824C107.062 11.6267 106.627 11.344 106.265 10.976C105.902 10.608 105.619 10.1627 105.417 9.64C105.219 9.112 105.121 8.52 105.121 7.864C105.121 7.208 105.219 6.61867 105.417 6.096C105.619 5.57333 105.902 5.13067 106.265 4.768C106.627 4.4 107.062 4.11733 107.569 3.92C108.081 3.72267 108.649 3.624 109.273 3.624ZM109.273 10.464C109.902 10.464 110.369 10.248 110.673 9.816C110.977 9.37867 111.129 8.73067 111.129 7.872C111.129 7.01867 110.977 6.376 110.673 5.944C110.369 5.50667 109.902 5.288 109.273 5.288C108.627 5.288 108.153 5.50667 107.849 5.944C107.545 6.376 107.393 7.01867 107.393 7.872C107.393 8.73067 107.545 9.37867 107.849 9.816C108.153 10.248 108.627 10.464 109.273 10.464ZM122.113 3.752L118.873 12H116.873L113.633 3.752H115.465C115.625 3.752 115.759 3.78933 115.865 3.864C115.972 3.93867 116.047 4.03467 116.089 4.152L117.473 8.232C117.564 8.50933 117.644 8.78133 117.713 9.048C117.783 9.30933 117.844 9.57333 117.897 9.84C117.956 9.57333 118.02 9.30933 118.089 9.048C118.164 8.78133 118.249 8.50933 118.345 8.232L119.777 4.152C119.815 4.03467 119.887 3.93867 119.993 3.864C120.1 3.78933 120.225 3.752 120.369 3.752H122.113ZM128.019 6.904C128.019 6.67467 127.987 6.456 127.923 6.248C127.864 6.04 127.768 5.856 127.635 5.696C127.502 5.536 127.334 5.41067 127.131 5.32C126.928 5.224 126.686 5.176 126.403 5.176C125.875 5.176 125.462 5.32533 125.163 5.624C124.864 5.92267 124.67 6.34933 124.579 6.904H128.019ZM124.547 8.216C124.616 8.98933 124.835 9.55467 125.203 9.912C125.576 10.2693 126.062 10.448 126.659 10.448C126.963 10.448 127.224 10.4133 127.443 10.344C127.667 10.2693 127.862 10.1893 128.027 10.104C128.198 10.0133 128.35 9.93333 128.483 9.864C128.622 9.78933 128.758 9.752 128.891 9.752C129.062 9.752 129.195 9.816 129.291 9.944L129.931 10.744C129.696 11.016 129.438 11.2427 129.155 11.424C128.872 11.6 128.579 11.7413 128.275 11.848C127.971 11.9493 127.664 12.0187 127.355 12.056C127.046 12.0987 126.747 12.12 126.459 12.12C125.883 12.12 125.344 12.0267 124.843 11.84C124.347 11.648 123.912 11.368 123.539 11C123.171 10.6267 122.88 10.1653 122.667 9.616C122.454 9.06667 122.347 8.42933 122.347 7.704C122.347 7.144 122.438 6.616 122.619 6.12C122.806 5.624 123.072 5.192 123.419 4.824C123.766 4.456 124.187 4.16533 124.683 3.952C125.179 3.73333 125.739 3.624 126.363 3.624C126.891 3.624 127.376 3.70933 127.819 3.88C128.267 4.04533 128.651 4.288 128.971 4.608C129.296 4.928 129.547 5.32267 129.723 5.792C129.904 6.256 129.995 6.78667 129.995 7.384C129.995 7.54933 129.987 7.68533 129.971 7.792C129.955 7.89867 129.928 7.984 129.891 8.048C129.854 8.112 129.803 8.15733 129.739 8.184C129.675 8.20533 129.592 8.216 129.491 8.216H124.547ZM133.413 4.712C133.578 4.552 133.749 4.40533 133.925 4.272C134.106 4.13867 134.296 4.024 134.493 3.928C134.696 3.832 134.912 3.75733 135.141 3.704C135.376 3.65067 135.629 3.624 135.901 3.624C136.349 3.624 136.746 3.70133 137.093 3.856C137.44 4.01067 137.73 4.22667 137.965 4.504C138.205 4.78133 138.384 5.112 138.501 5.496C138.624 5.88 138.685 6.30133 138.685 6.76V12H136.485V6.76C136.485 6.30133 136.378 5.94667 136.165 5.696C135.952 5.44 135.637 5.312 135.221 5.312C134.912 5.312 134.621 5.37867 134.349 5.512C134.077 5.64533 133.818 5.832 133.573 6.072V12H131.365V3.752H132.725C133.002 3.752 133.186 3.88 133.277 4.136L133.413 4.712ZM145.571 5.448C145.513 5.53867 145.451 5.60533 145.387 5.648C145.329 5.68533 145.246 5.704 145.139 5.704C145.033 5.704 144.923 5.67733 144.811 5.624C144.699 5.57067 144.574 5.51467 144.435 5.456C144.297 5.392 144.137 5.33333 143.955 5.28C143.779 5.22667 143.574 5.2 143.339 5.2C142.982 5.2 142.705 5.27467 142.507 5.424C142.31 5.568 142.211 5.76 142.211 6C142.211 6.16533 142.267 6.304 142.379 6.416C142.491 6.528 142.638 6.62667 142.819 6.712C143.006 6.792 143.217 6.86933 143.451 6.944C143.686 7.01333 143.926 7.09067 144.171 7.176C144.422 7.26133 144.665 7.36 144.899 7.472C145.134 7.584 145.342 7.72533 145.523 7.896C145.71 8.06133 145.859 8.264 145.971 8.504C146.083 8.73867 146.139 9.024 146.139 9.36C146.139 9.76 146.065 10.1307 145.915 10.472C145.771 10.808 145.558 11.0987 145.275 11.344C144.993 11.5893 144.641 11.7813 144.219 11.92C143.798 12.0587 143.313 12.128 142.763 12.128C142.481 12.128 142.201 12.1013 141.923 12.048C141.646 12 141.382 11.9307 141.131 11.84C140.881 11.744 140.646 11.6347 140.427 11.512C140.209 11.3893 140.019 11.256 139.859 11.112L140.371 10.288C140.43 10.192 140.502 10.1173 140.587 10.064C140.678 10.0107 140.793 9.984 140.931 9.984C141.065 9.984 141.187 10.0187 141.299 10.088C141.411 10.152 141.537 10.224 141.675 10.304C141.814 10.3787 141.977 10.4507 142.163 10.52C142.355 10.584 142.593 10.616 142.875 10.616C143.089 10.616 143.273 10.592 143.427 10.544C143.582 10.496 143.707 10.432 143.803 10.352C143.899 10.2667 143.969 10.1733 144.011 10.072C144.059 9.96533 144.083 9.856 144.083 9.744C144.083 9.56267 144.025 9.416 143.907 9.304C143.795 9.18667 143.646 9.08533 143.459 9C143.278 8.91467 143.067 8.83733 142.827 8.768C142.587 8.69867 142.342 8.62133 142.091 8.536C141.846 8.45067 141.603 8.34933 141.363 8.232C141.129 8.11467 140.918 7.968 140.731 7.792C140.55 7.61067 140.401 7.38933 140.283 7.128C140.171 6.86667 140.115 6.54933 140.115 6.176C140.115 5.83467 140.182 5.512 140.315 5.208C140.449 4.89867 140.649 4.62667 140.915 4.392C141.182 4.15733 141.513 3.97067 141.907 3.832C142.307 3.69333 142.769 3.624 143.291 3.624C143.878 3.624 144.411 3.72 144.891 3.912C145.371 4.104 145.766 4.35467 146.075 4.664L145.571 5.448ZM149.729 0.0719995V6.84H150.097C150.236 6.84 150.345 6.82133 150.425 6.784C150.505 6.74133 150.585 6.66667 150.665 6.56L152.489 4.128C152.58 4.00533 152.681 3.912 152.793 3.848C152.911 3.784 153.057 3.752 153.233 3.752H155.249L152.881 6.76C152.695 7.01067 152.479 7.208 152.233 7.352C152.356 7.43733 152.463 7.536 152.553 7.648C152.644 7.76 152.732 7.88533 152.817 8.024L155.369 12H153.385C153.215 12 153.068 11.9733 152.945 11.92C152.823 11.8613 152.721 11.76 152.641 11.616L150.785 8.584C150.711 8.456 150.633 8.37333 150.553 8.336C150.473 8.29867 150.353 8.28 150.193 8.28H149.729V12H147.521V0.0719995H149.729ZM163.496 3.752V12H162.136C161.853 12 161.672 11.872 161.592 11.616L161.448 11.04C161.282 11.2 161.112 11.3467 160.936 11.48C160.76 11.6133 160.57 11.728 160.368 11.824C160.17 11.92 159.954 11.9947 159.72 12.048C159.49 12.1013 159.24 12.128 158.968 12.128C158.52 12.128 158.12 12.0507 157.768 11.896C157.421 11.7413 157.13 11.5253 156.896 11.248C156.661 10.9707 156.482 10.64 156.36 10.256C156.237 9.872 156.176 9.45067 156.176 8.992V3.752H158.384V8.992C158.384 9.45067 158.488 9.808 158.696 10.064C158.909 10.3147 159.224 10.44 159.64 10.44C159.949 10.44 160.24 10.3733 160.512 10.24C160.784 10.1013 161.042 9.91467 161.288 9.68V3.752H163.496Z" fill="#292929"/>
</svg>
